HIERARCHY
ROOT hip
{
	OFFSET	0.00  0.00  0.00 
	CHANNELS 6 Xposition Yposition Zposition Xrotation Zrotation Yrotation
	JOINT abdomen
	{
		OFFSET	0.000000 0.000000 0.000000
		CHANNELS 3 Xrotation Zrotation Yrotation
		JOINT chest
		{
			OFFSET	0.000000 5.018152 -1.882228
			CHANNELS 3 Xrotation Zrotation Yrotation
			JOINT neckDummy
			{
				OFFSET	0.000000 8.316447 0.784897
				CHANNELS 3 Xrotation Yrotation Zrotation
				JOINT neck
				{
					OFFSET	0.000000 2.280413 -0.392801
					CHANNELS 3 Xrotation Zrotation Yrotation
					JOINT head
					{
						OFFSET	0.000000 3.496879 0.529469
						CHANNELS 3 Xrotation Zrotation Yrotation
						JOINT figureHair
						{
							OFFSET	0.000000 4.699570 0.720622
							CHANNELS 3 Zrotation Yrotation Xrotation
							End Site
							{
								OFFSET 0.000000 -6.419331 0.000000
							}
						}
					}
				}
			}
			JOINT lCollar
			{
				OFFSET	0.599237 8.316447 0.784897
				CHANNELS 3 Yrotation Zrotation Xrotation
				JOINT lShldr
				{
					OFFSET	6.421198 0.010146 -0.332128
					CHANNELS 3 Zrotation Yrotation Xrotation
					JOINT lForeArm
					{
						OFFSET	10.552783 0.025574 0.125508
						CHANNELS 3 Yrotation Zrotation Xrotation
						JOINT lHand
						{
							OFFSET	11.035963 0.319619 0.041520
							CHANNELS 3 Zrotation Yrotation Xrotation
							End Site
							{
								OFFSET 10.353753 0.000000 0.000000
							}
						}
					}
				}
			}
			JOINT rCollar
			{
				OFFSET	-0.599237 8.316447 0.784897
				CHANNELS 3 Yrotation Zrotation Xrotation
				JOINT rShldr
				{
					OFFSET	-6.421198 0.010146 -0.332128
					CHANNELS 3 Zrotation Yrotation Xrotation
					JOINT rForeArm
					{
						OFFSET	-10.552783 0.025574 0.125508
						CHANNELS 3 Yrotation Zrotation Xrotation
						JOINT rHand
						{
							OFFSET	-11.035963 0.319619 0.041520
							CHANNELS 3 Zrotation Yrotation Xrotation
							End Site
							{
								OFFSET -10.353753 0.000000 0.000000
							}
						}
					}
				}
			}
		}
	}
	JOINT lThigh
	{
		OFFSET	4.500466 -6.400484 -1.832696
		CHANNELS 3 Xrotation Zrotation Yrotation
		JOINT lShin
		{
			OFFSET	-1.359117 -18.918689 1.179887
			CHANNELS 3 Xrotation Zrotation Yrotation
			JOINT lFoot
			{
				OFFSET	-0.652380 -17.215186 -0.312137
				CHANNELS 3 Xrotation Yrotation Zrotation
				End Site
				{
					OFFSET 0.000000 0.000000 10.353752
				}
			}
		}
	}
	JOINT rThigh
	{
		OFFSET	-4.500466 -6.400484 -1.832696
		CHANNELS 3 Xrotation Zrotation Yrotation
		JOINT rShin
		{
			OFFSET	1.359117 -18.918689 1.179887
			CHANNELS 3 Xrotation Zrotation Yrotation
			JOINT rFoot
			{
				OFFSET	0.652380 -17.215186 -0.312137
				CHANNELS 3 Xrotation Yrotation Zrotation
				End Site
				{
					OFFSET 0.000000 0.000000 10.353752
				}
			}
		}
	}
}
MOTION
Frames:     15
Frame Time: 0.066667
17.799967 42.109997 21.709997 -179.873001 174.160004 1.827170 7.646480 11.640600 -0.320295 0.000000 0.000000 0.000000 0.000000 0.000000 0.000000 -14.951200 -8.544920 5.740740 0.000000 0.000000 0.000000 0.000000 0.000000 0.000000 0.000000 0.000000 0.000000 -55.639900 2.240960 76.432800 -72.483803 24.270901 19.590099 -13.620900 -16.678900 -35.696602 0.000000 0.000000 0.000000 47.061501 -2.530420 67.731102 80.191597 -21.387300 22.421499 7.388010 14.836700 -29.400600 -25.362991 8.239327 2.012261 41.594460 3.707390 -3.443543 -4.794474 -6.724102 -8.171349 -7.984913 6.070812 -3.863723 9.736594 -2.293221 -2.372777 2.108215 3.137358 4.678519 
19.660017 41.569996 24.280006 173.759995 168.350006 6.105490 7.841800 23.945299 2.210990 0.000000 0.000000 0.000000 0.000000 0.000000 0.000000 -21.035200 -13.857400 6.220700 0.000000 0.000000 0.000000 0.000000 0.000000 0.000000 0.000000 0.000000 0.000000 -61.501301 -0.252532 82.090103 -67.743896 23.317499 17.429001 -12.447400 -18.044600 -36.752701 0.000000 0.000000 0.000000 39.465900 -3.018270 67.268501 88.008904 -21.057800 25.464399 10.712200 17.269400 -27.663700 -46.072723 11.698839 -2.525436 58.510582 6.068518 -3.980484 -3.484676 -10.507900 -10.104197 -10.522432 12.718864 0.117518 -3.530348 -1.452271 -7.929002 6.966332 3.609474 1.381383 
20.720036 41.629997 25.650015 171.395996 164.658005 4.983050 8.710940 30.361300 3.881890 0.000000 0.000000 0.000000 0.000000 0.000000 0.000000 -22.851601 -15.361300 9.011080 0.000000 0.000000 0.000000 0.000000 0.000000 0.000000 0.000000 0.000000 0.000000 -65.582603 -1.949510 84.824799 -62.640999 22.319799 15.301500 -8.685590 -18.712200 -40.696201 0.000000 0.000000 0.000000 34.432899 -5.520880 68.038200 92.572701 -22.075800 26.276199 10.490200 17.355101 -25.399799 -55.051346 13.416768 -7.487647 66.215828 6.935494 -3.609477 -2.461427 -10.760543 -11.979733 -12.057058 16.489536 3.688041 -8.410946 -0.992826 -6.650217 8.220821 -1.222102 0.429663 
20.000036 42.539997 25.630032 174.268005 169.033005 3.595610 10.761700 22.177700 2.132590 0.000000 0.000000 0.000000 0.000000 0.000000 0.000000 -20.175800 -13.535200 9.831700 0.000000 0.000000 0.000000 0.000000 0.000000 0.000000 0.000000 0.000000 0.000000 -60.013199 0.639133 83.272499 -68.911903 24.000299 16.628799 -9.681320 -17.192499 -37.061001 0.000000 0.000000 0.000000 38.452702 -2.748520 71.159500 89.981102 -21.698000 25.855801 8.489240 15.394700 -22.445601 -43.365841 10.907434 -1.871197 56.119774 6.127650 -4.415599 -5.296074 -7.316290 -8.668437 -11.282530 11.897257 -0.562674 -2.548130 -1.425380 -5.155537 4.651631 3.218136 3.882534 
18.990026 43.169994 24.670033 176.143005 178.085999 -0.849283 14.296900 2.724610 1.172340 0.000000 0.000000 0.000000 0.000000 0.000000 0.000000 -17.968800 -6.035160 9.003910 0.000000 0.000000 0.000000 0.000000 0.000000 0.000000 0.000000 0.000000 0.000000 -48.158501 4.352080 79.008003 -80.718498 26.227600 19.983801 -10.565500 -15.867400 -32.294899 0.000000 0.000000 0.000000 49.292599 3.042540 74.885803 82.867203 -20.748100 24.398100 7.504660 11.293000 -18.805599 -25.820414 2.314954 2.159311 32.723976 3.276257 0.252327 -4.741535 -4.779483 -7.160413 -18.855354 3.114941 -1.581673 17.602783 -3.915464 0.194939 -0.542862 4.950871 6.204612 
18.440035 42.369995 24.570017 174.345993 -175.889008 -5.108120 14.892600 -12.568400 -0.138844 0.000000 0.000000 0.000000 0.000000 0.000000 0.000000 -20.771500 2.275390 8.896480 0.000000 0.000000 0.000000 0.000000 0.000000 0.000000 0.000000 0.000000 0.000000 -38.615002 6.778930 74.856598 -90.150597 26.621799 23.298100 -12.569300 -15.750200 -30.791800 0.000000 0.000000 0.000000 57.419998 6.910280 77.298698 78.545700 -20.026600 23.488899 6.315040 9.650170 -17.643999 -16.823530 -3.270728 6.066093 12.319387 1.755196 3.096426 0.039460 -5.527212 -5.221791 -33.770779 -1.163015 4.204535 37.760132 -4.767401 2.420429 0.951138 4.769641 8.563380 
17.810009 40.529999 25.019991 170.811005 -168.817993 -6.710880 16.289101 -27.372999 -4.091800 0.000000 0.000000 0.000000 0.000000 0.000000 0.000000 -27.792999 8.847660 7.696810 0.000000 0.000000 0.000000 0.000000 0.000000 0.000000 0.000000 0.000000 0.000000 -26.053699 6.298460 71.739601 -101.874001 27.404200 26.846600 -16.370899 -15.272800 -31.151300 0.000000 0.000000 0.000000 66.217796 9.486720 78.434898 72.984100 -18.663099 22.392000 3.805000 9.599410 -17.059099 -17.575369 -10.681921 3.004306 0.926835 0.273087 5.132495 5.119528 -0.420459 -0.733100 -50.378925 -3.984427 12.045501 54.558762 -5.245644 2.131767 3.037511 6.006697 10.991954 
17.210009 41.119995 25.609947 168.916000 -164.257996 -6.321010 17.880899 -36.337898 -6.757810 0.000000 0.000000 0.000000 0.000000 0.000000 0.000000 -32.568401 10.820300 4.767460 0.000000 0.000000 0.000000 0.000000 0.000000 0.000000 0.000000 0.000000 0.000000 -17.589899 5.713080 70.216400 -108.864998 28.135599 28.979900 -19.127701 -14.708200 -31.586399 0.000000 0.000000 0.000000 71.981102 10.768100 80.822304 68.706200 -19.528700 21.261801 1.871380 9.494270 -16.114799 -20.246595 -15.921409 -3.396888 -0.909382 -0.048505 4.375985 5.666849 8.181516 1.585552 -58.793804 -4.297913 17.522579 62.111420 -6.546899 1.286210 6.177931 6.763342 13.462195 
17.930008 41.769997 25.369947 169.423996 -165.576004 -5.578600 16.923800 -35.439499 -5.093550 0.000000 0.000000 0.000000 0.000000 0.000000 0.000000 -31.914101 11.103500 2.619070 0.000000 0.000000 0.000000 0.000000 0.000000 0.000000 0.000000 0.000000 0.000000 -18.501499 5.561640 69.743401 -107.314003 27.923100 29.348400 -19.508600 -15.424900 -30.011400 0.000000 0.000000 0.000000 72.309601 9.212150 80.954903 67.107300 -19.659599 20.981199 1.882840 10.038600 -17.015699 -18.841587 -13.706315 -2.527714 -0.673515 -0.644175 2.122557 4.416089 8.111362 1.257892 -56.452534 -3.320762 17.172531 60.099819 -6.204748 0.705884 7.596823 5.885951 14.169330 
19.250010 42.919994 24.120043 172.334000 -175.897995 -2.871790 15.595700 -15.429700 0.761719 0.000000 0.000000 0.000000 0.000000 0.000000 0.000000 -22.167999 5.390630 3.760680 0.000000 0.000000 0.000000 0.000000 0.000000 0.000000 0.000000 0.000000 0.000000 -35.396500 5.409710 72.736099 -94.171303 27.929399 25.669901 -18.603300 -15.709200 -25.865900 0.000000 0.000000 0.000000 61.611301 2.287120 74.861000 73.859299 -21.065399 22.279499 3.553790 12.656500 -19.430000 -18.705816 -2.499667 4.393273 10.806286 0.671688 -1.237118 -1.440546 -1.024403 -2.922942 -37.294884 -0.273416 4.345307 38.790997 -4.956461 0.679935 3.283667 5.651276 10.715991 
20.319965 42.009995 25.309999 167.744003 169.873001 5.656010 15.673800 21.308599 5.546870 0.000000 0.000000 0.000000 0.000000 0.000000 0.000000 -23.515600 -11.113300 4.501950 0.000000 0.000000 0.000000 0.000000 0.000000 0.000000 0.000000 0.000000 0.000000 -59.827999 -2.807330 81.669197 -68.267097 26.326099 16.725100 -15.960100 -17.287201 -29.578600 0.000000 0.000000 0.000000 38.008400 -6.458500 64.484802 94.333000 -21.631201 28.195200 6.056360 17.006500 -20.113899 -53.352165 10.154504 -1.206682 54.707607 4.562826 -4.821188 2.807721 -12.195544 -7.843454 -21.208466 11.326416 -3.625349 -2.038730 -3.316574 -5.586563 9.460044 4.617517 4.656536 
21.469957 41.099991 26.400042 164.677994 164.287003 5.383500 15.888700 30.898399 9.257810 0.000000 0.000000 0.000000 0.000000 0.000000 0.000000 -27.666000 -13.681600 6.093750 0.000000 0.000000 0.000000 0.000000 0.000000 0.000000 0.000000 0.000000 0.000000 -65.386497 -6.587970 85.016899 -61.188999 25.905500 12.810000 -16.294600 -18.279301 -31.485001 0.000000 0.000000 0.000000 31.906300 -9.081400 62.987099 100.901001 -21.989700 30.862700 7.005630 17.036200 -19.027100 -68.634117 12.704600 -8.528459 67.447876 5.666996 -3.882325 9.099155 -16.273058 -8.900775 -23.091158 17.495918 3.976166 -8.930727 -2.263907 -3.735881 11.103394 -7.633862 -0.038123 
21.539949 41.279991 26.420025 166.143005 163.212997 6.008680 16.250000 32.763699 8.608800 0.000000 0.000000 0.000000 0.000000 0.000000 0.000000 -26.796900 -13.906300 6.501560 0.000000 0.000000 0.000000 0.000000 0.000000 0.000000 0.000000 0.000000 0.000000 -65.786797 -6.742440 85.426598 -61.128799 26.028000 12.549300 -16.519100 -18.080799 -32.289501 0.000000 0.000000 0.000000 31.234800 -10.046100 62.142799 102.745003 -22.545700 30.954800 7.963340 16.523800 -16.940901 -68.218597 12.978045 -9.228241 68.464767 6.730759 -3.543823 8.089177 -16.820169 -9.151499 -21.755009 18.620829 5.660789 -9.468026 -1.959805 -2.894953 11.642339 -10.464282 -2.063524 
19.939983 42.339996 25.829964 170.352005 169.384995 5.255700 15.800800 22.285200 4.755860 0.000000 0.000000 0.000000 0.000000 0.000000 0.000000 -21.787100 -12.285200 6.540890 0.000000 0.000000 0.000000 0.000000 0.000000 0.000000 0.000000 0.000000 0.000000 -59.803600 -0.933807 82.062202 -67.010803 26.386700 14.886400 -16.062300 -17.270300 -29.977100 0.000000 0.000000 0.000000 39.294102 -7.485030 64.921700 93.614899 -21.751400 28.425699 8.735320 15.524100 -14.764100 -52.240299 9.725351 0.375710 57.247475 7.835641 -1.820043 1.393247 -14.897444 -8.664578 -16.557455 10.884863 0.941326 -6.220882 -0.527271 -1.078680 7.849154 -4.504801 1.217596 
18.619984 43.099995 24.509962 172.686005 -179.561005 -0.156325 17.294901 -0.527344 1.855470 0.000000 0.000000 0.000000 0.000000 0.000000 0.000000 -19.667999 -4.306640 7.284420 0.000000 0.000000 0.000000 0.000000 0.000000 0.000000 0.000000 0.000000 0.000000 -47.424400 7.445060 74.019096 -80.746498 27.248800 20.287600 -14.893200 -16.102501 -24.647200 0.000000 0.000000 0.000000 54.770901 -0.487354 69.846497 78.873596 -21.939600 23.958799 10.693700 13.389300 -10.699600 -34.447781 0.644069 3.819709 37.233166 3.923444 1.715807 2.526923 -9.961116 -9.076151 -20.681746 0.214369 -2.179354 10.478180 -2.968790 0.960984 1.675032 5.145076 5.793442 
